<svg id="svg" version="1.1" xmlns="http://www.w3.org/2000/svg" xmlns:xlink="http://www.w3.org/1999/xlink" width="400" height="173.91304347826087" viewBox="0, 0, 400,173.91304347826087">
  <g id="svgg">
    <path id="path0" d="M105.435 0.359 C 64.881 4.223,13.827 56.564,2.517 105.870 C -1.246 122.278,4.210 136.293,16.700 142.302 C 29.925 148.663,48.557 144.105,73.569 128.388 C 76.190 126.742,78.852 125.012,79.484 124.545 C 80.116 124.078,80.678 123.696,80.732 123.696 C 80.785 123.696,79.631 125.872,78.166 128.533 C 69.575 144.131,62.904 157.459,62.034 160.761 C 61.157 164.091,61.143 169.214,62.006 170.683 C 64.089 174.225,69.293 174.373,73.646 171.014 C 77.336 168.165,78.385 166.565,84.607 154.300 C 96.840 130.185,106.693 111.568,109.722 106.848 C 122.223 87.369,126.087 79.086,126.087 71.768 C 126.087 66.491,120.764 63.225,114.692 64.778 C 110.031 65.970,109.399 66.747,100.978 81.618 C 93.294 95.189,93.092 95.470,87.503 100.326 C 72.296 113.540,53.986 124.185,42.466 126.511 C 22.344 130.573,21.538 106.361,40.764 75.438 C 62.934 39.782,96.821 13.359,115.364 17.268 C 121.811 18.628,125.471 22.020,129.770 30.621 C 134.227 39.538,136.582 41.851,141.196 41.845 C 148.975 41.834,153.148 31.979,148.772 23.951 C 139.757 7.414,123.617 -1.373,105.435 0.359 M320.000 14.855 L 317.500 15.109 319.239 15.732 C 344.796 24.893,361.699 51.553,358.604 77.823 L 358.310 80.319 357.146 81.390 C 352.877 85.315,349.405 86.849,347.465 85.666 L 346.777 85.247 347.287 83.595 C 348.988 78.082,348.438 74.062,345.596 71.219 C 341.887 67.511,334.067 66.738,327.636 69.445 C 326.875 69.765,326.170 69.939,326.023 69.844 C 325.879 69.750,321.547 69.625,316.396 69.565 L 307.032 69.457 308.311 67.065 C 309.015 65.750,310.943 62.179,312.596 59.130 C 317.717 49.685,317.909 49.156,316.897 47.251 C 315.674 44.947,310.937 45.160,308.859 47.612 C 308.470 48.071,305.755 53.195,302.826 59.000 L 297.500 69.554 294.348 69.565 C 290.401 69.577,289.477 69.917,288.180 71.827 C 286.383 74.475,288.301 76.522,292.578 76.522 L 294.312 76.522 291.176 82.989 C 289.452 86.546,287.774 90.207,287.449 91.123 L 286.857 92.790 285.004 93.886 C 281.719 95.829,278.421 96.940,276.824 96.640 C 274.110 96.131,275.232 91.495,280.823 80.110 L 284.239 73.155 284.239 71.593 C 284.239 69.274,283.181 68.054,281.012 67.874 C 278.141 67.636,276.777 69.076,274.354 74.905 C 269.291 87.087,259.203 97.066,253.270 95.763 C 251.408 95.354,251.205 92.146,252.836 88.900 C 253.170 88.235,253.514 87.305,253.600 86.834 C 253.819 85.635,255.457 82.449,257.952 78.370 C 261.198 73.062,261.727 72.011,261.733 70.845 C 261.752 67.556,256.027 66.708,253.328 69.599 C 252.234 70.771,247.453 79.791,245.337 84.674 L 244.113 87.500 241.350 89.128 C 230.737 95.381,223.043 97.757,223.043 94.782 C 223.043 93.249,224.367 92.154,228.782 90.032 C 237.262 85.957,241.335 81.489,241.876 75.668 C 242.339 70.682,238.035 67.512,231.305 67.883 C 226.682 68.137,222.002 70.601,216.831 75.501 L 214.570 77.644 215.555 75.833 C 217.272 72.675,219.021 69.149,222.728 61.371 C 226.345 53.781,228.682 49.159,230.669 45.664 C 233.182 41.243,232.338 38.801,228.299 38.807 C 226.125 38.811,224.735 39.375,223.333 40.823 C 222.614 41.566,214.223 58.423,203.917 79.830 C 202.552 82.665,201.411 84.962,201.381 84.932 C 201.352 84.903,201.168 84.105,200.973 83.159 C 198.650 71.913,187.232 64.846,176.008 67.707 C 167.108 69.975,161.136 77.510,160.713 87.005 L 160.590 89.772 157.516 91.408 C 155.825 92.308,153.541 93.627,152.440 94.339 L 150.439 95.634 151.170 94.176 C 156.025 84.493,161.379 72.839,161.395 71.919 C 161.448 68.900,157.989 68.725,154.102 71.551 C 153.548 71.953,148.351 76.946,142.553 82.645 C 127.077 97.857,126.953 97.848,134.541 82.068 C 139.823 71.081,139.823 71.083,138.628 69.889 C 137.335 68.596,135.252 68.397,133.078 69.358 C 131.187 70.194,130.389 71.268,128.935 74.936 C 127.411 78.779,125.727 82.438,122.408 89.125 C 116.578 100.871,116.571 104.638,122.380 104.599 C 128.445 104.560,135.490 99.639,144.846 88.911 L 145.887 87.717 145.146 89.348 C 141.290 97.840,136.627 106.491,134.128 109.793 C 125.200 121.588,123.039 129.717,128.220 132.009 C 133.340 134.274,137.218 129.465,143.920 112.538 L 145.282 109.097 147.043 107.569 C 149.985 105.016,153.329 102.928,161.344 98.633 L 163.232 97.622 164.207 98.987 C 166.043 101.561,170.500 105.340,170.738 104.525 C 170.784 104.368,170.937 103.558,171.077 102.725 C 171.542 99.969,173.207 97.003,174.980 95.775 C 176.051 95.033,176.047 95.080,175.149 93.890 C 171.356 88.858,169.306 82.657,169.263 76.087 C 169.232 71.428,169.326 71.242,170.886 72.841 C 175.462 77.531,178.568 84.632,179.034 91.467 L 179.186 93.696 180.989 93.696 L 182.791 93.696 182.915 92.228 C 183.552 84.677,186.631 77.417,191.120 72.882 C 192.485 71.503,192.526 71.497,192.686 72.663 C 193.607 79.380,191.789 86.545,187.561 92.867 L 186.196 94.909 187.658 96.369 C 189.527 98.236,190.718 100.592,191.109 103.195 C 191.416 105.242,191.290 105.226,193.424 103.495 C 194.735 102.432,194.783 102.412,194.783 102.946 C 194.783 103.719,195.689 104.558,196.566 104.597 C 200.314 104.762,202.424 103.114,207.682 95.918 C 216.575 83.744,224.313 76.433,229.104 75.676 C 233.072 75.048,231.403 79.436,226.436 82.690 C 225.467 83.325,223.516 84.603,222.101 85.530 C 215.029 90.164,211.808 96.280,213.767 101.356 C 215.847 106.747,228.147 105.308,239.955 98.292 C 240.588 97.916,241.137 97.609,241.175 97.609 C 241.213 97.609,241.304 98.116,241.377 98.737 C 242.504 108.246,259.460 106.030,268.083 95.247 L 268.841 94.298 268.536 96.008 C 266.865 105.364,273.784 107.375,284.811 100.737 C 286.283 99.851,286.220 99.856,286.373 100.598 C 287.746 107.252,299.159 105.549,310.256 97.033 L 311.490 96.086 311.853 97.334 C 315.211 108.885,333.800 106.427,343.370 93.166 L 343.804 92.563 344.843 93.115 C 347.877 94.729,351.151 94.251,354.533 91.700 C 355.899 90.669,355.904 90.573,354.417 94.231 C 343.864 120.202,315.749 134.540,288.128 128.037 C 278.309 125.725,269.465 121.369,262.684 115.505 C 261.948 114.868,261.296 114.348,261.234 114.348 C 260.571 114.348,265.776 123.983,268.692 128.152 C 297.810 169.788,360.006 169.675,387.721 127.935 C 413.499 89.112,395.935 35.248,352.283 19.253 C 351.087 18.814,349.766 18.325,349.348 18.165 C 342.303 15.469,328.880 13.956,320.000 14.855 M317.624 77.455 C 315.973 79.642,313.676 84.016,312.850 86.547 C 312.180 88.604,299.644 96.087,296.870 96.087 C 294.501 96.087,295.082 93.831,300.088 83.606 L 303.663 76.304 311.078 76.304 L 318.492 76.304 317.624 77.455 M334.901 76.764 C 337.703 77.470,338.747 82.143,337.121 86.703 C 334.124 95.110,324.192 99.186,322.292 92.790 C 320.020 85.138,327.980 75.021,334.901 76.764 M174.217 101.391 C 171.984 103.624,175.008 106.828,177.335 104.695 C 178.021 104.067,178.142 103.818,178.142 103.043 C 178.142 100.958,175.685 99.924,174.217 101.391 M184.625 101.419 C 183.920 102.123,183.867 102.266,183.969 103.172 C 184.235 105.529,187.074 106.243,188.286 104.256 C 189.762 101.835,186.634 99.410,184.625 101.419 M179.647 107.503 C 181.089 108.834,181.003 108.839,182.717 107.298 L 183.804 106.321 181.087 106.323 L 178.370 106.324 179.647 107.503 " stroke="none" fill="#F1C40F" fill-rule="evenodd">
    </path>
  </g>
</svg>
